<?xml version="1.0" encoding="utf-8" standalone="no"?>
<!DOCTYPE svg PUBLIC "-//W3C//DTD SVG 1.1//EN"
  "http://www.w3.org/Graphics/SVG/1.1/DTD/svg11.dtd">
<!-- Created with matplotlib (http://matplotlib.org/) -->
<svg height="432pt" version="1.1" viewBox="0 0 432 432" width="432pt" xmlns="http://www.w3.org/2000/svg" xmlns:xlink="http://www.w3.org/1999/xlink">
 <defs>
  <style type="text/css">
*{stroke-linecap:butt;stroke-linejoin:round;}
  </style>
 </defs>
 <g id="figure_1">
  <g id="patch_1">
   <path d="
M0 432
L432 432
L432 0
L0 0
z
" style="fill:#ffffff;"/>
  </g>
  <g id="axes_1">
   <g id="PathCollection_1">
    <defs>
     <path d="
M0 2.23607
C0.593012 2.23607 1.16182 2.00046 1.58114 1.58114
C2.00046 1.16182 2.23607 0.593012 2.23607 0
C2.23607 -0.593012 2.00046 -1.16182 1.58114 -1.58114
C1.16182 -2.00046 0.593012 -2.23607 0 -2.23607
C-0.593012 -2.23607 -1.16182 -2.00046 -1.58114 -1.58114
C-2.00046 -1.16182 -2.23607 -0.593012 -2.23607 0
C-2.23607 0.593012 -2.00046 1.16182 -1.58114 1.58114
C-1.16182 2.00046 -0.593012 2.23607 0 2.23607
z
" id="m758fc3bcc2" style="stroke:#000000;"/>
    </defs>
    <g clip-path="url(#p2265e122b5)">
     <use style="fill:#00bfbf;stroke:#000000;" x="230.224186345" xlink:href="#m758fc3bcc2" y="120.878159509"/>
     <use style="fill:#00bfbf;stroke:#000000;" x="240.863460632" xlink:href="#m758fc3bcc2" y="112.992545254"/>
     <use style="fill:#00bfbf;stroke:#000000;" x="200.136275809" xlink:href="#m758fc3bcc2" y="104.531654172"/>
     <use style="fill:#00bfbf;stroke:#000000;" x="225.564451999" xlink:href="#m758fc3bcc2" y="107.596250242"/>
     <use style="fill:#00bfbf;stroke:#000000;" x="204.120640334" xlink:href="#m758fc3bcc2" y="146.177347132"/>
     <use style="fill:#00bfbf;stroke:#000000;" x="227.190804335" xlink:href="#m758fc3bcc2" y="112.423876316"/>
     <use style="fill:#00bfbf;stroke:#000000;" x="225.202888311" xlink:href="#m758fc3bcc2" y="117.008019082"/>
     <use style="fill:#00bfbf;stroke:#000000;" x="213.914294976" xlink:href="#m758fc3bcc2" y="108.949430758"/>
     <use style="fill:#00bfbf;stroke:#000000;" x="207.261729651" xlink:href="#m758fc3bcc2" y="112.78810939"/>
     <use style="fill:#00bfbf;stroke:#000000;" x="217.231477844" xlink:href="#m758fc3bcc2" y="107.490301056"/>
     <use style="fill:#00bfbf;stroke:#000000;" x="177.280033691" xlink:href="#m758fc3bcc2" y="212.992202447"/>
     <use style="fill:#00bfbf;stroke:#000000;" x="238.424531686" xlink:href="#m758fc3bcc2" y="115.344924596"/>
     <use style="fill:#00bfbf;stroke:#000000;" x="217.518710507" xlink:href="#m758fc3bcc2" y="104.854411024"/>
     <use style="fill:#00bfbf;stroke:#000000;" x="237.232579093" xlink:href="#m758fc3bcc2" y="106.129512627"/>
     <use style="fill:#00bfbf;stroke:#000000;" x="229.483994503" xlink:href="#m758fc3bcc2" y="105.916941325"/>
     <use style="fill:#00bfbf;stroke:#000000;" x="227.67734812" xlink:href="#m758fc3bcc2" y="103.721403157"/>
     <use style="fill:#00bfbf;stroke:#000000;" x="228.016294282" xlink:href="#m758fc3bcc2" y="107.824544705"/>
     <use style="fill:#00bfbf;stroke:#000000;" x="207.321611604" xlink:href="#m758fc3bcc2" y="106.100985913"/>
     <use style="fill:#00bfbf;stroke:#000000;" x="219.410603381" xlink:href="#m758fc3bcc2" y="112.390886062"/>
     <use style="fill:#00bfbf;stroke:#000000;" x="165.696338112" xlink:href="#m758fc3bcc2" y="115.507933811"/>
     <use style="fill:#00bfbf;stroke:#000000;" x="214.371958985" xlink:href="#m758fc3bcc2" y="107.319680263"/>
     <use style="fill:#00bfbf;stroke:#000000;" x="209.966463694" xlink:href="#m758fc3bcc2" y="120.115484052"/>
     <use style="fill:#00bfbf;stroke:#000000;" x="208.057827658" xlink:href="#m758fc3bcc2" y="110.385830866"/>
     <use style="fill:#00bfbf;stroke:#000000;" x="231.532823906" xlink:href="#m758fc3bcc2" y="102.463934419"/>
     <use style="fill:#00bfbf;stroke:#000000;" x="216.483668156" xlink:href="#m758fc3bcc2" y="107.733965809"/>
     <use style="fill:#00bfbf;stroke:#000000;" x="230.207127707" xlink:href="#m758fc3bcc2" y="101.5411606"/>
     <use style="fill:#00bfbf;stroke:#000000;" x="241.034334161" xlink:href="#m758fc3bcc2" y="104.648157635"/>
     <use style="fill:#00bfbf;stroke:#000000;" x="228.248836587" xlink:href="#m758fc3bcc2" y="110.090864221"/>
     <use style="fill:#00bfbf;stroke:#000000;" x="242.014488438" xlink:href="#m758fc3bcc2" y="128.109680041"/>
     <use style="fill:#00bfbf;stroke:#000000;" x="233.755886534" xlink:href="#m758fc3bcc2" y="116.801016688"/>
     <use style="fill:#00bfbf;stroke:#000000;" x="222.601987163" xlink:href="#m758fc3bcc2" y="117.620907281"/>
     <use style="fill:#00bfbf;stroke:#000000;" x="234.782506026" xlink:href="#m758fc3bcc2" y="108.558823007"/>
     <use style="fill:#00bfbf;stroke:#000000;" x="215.378642034" xlink:href="#m758fc3bcc2" y="114.64901565"/>
     <use style="fill:#00bfbf;stroke:#000000;" x="207.756932615" xlink:href="#m758fc3bcc2" y="106.466911452"/>
     <use style="fill:#00bfbf;stroke:#000000;" x="222.238665241" xlink:href="#m758fc3bcc2" y="119.898482178"/>
     <use style="fill:#00bfbf;stroke:#000000;" x="217.309527549" xlink:href="#m758fc3bcc2" y="104.446737273"/>
     <use style="fill:#00bfbf;stroke:#000000;" x="195.91486416" xlink:href="#m758fc3bcc2" y="114.539421377"/>
     <use style="fill:#00bfbf;stroke:#000000;" x="205.953427622" xlink:href="#m758fc3bcc2" y="112.644570875"/>
     <use style="fill:#00bfbf;stroke:#000000;" x="204.866902792" xlink:href="#m758fc3bcc2" y="113.921574991"/>
     <use style="fill:#00bfbf;stroke:#000000;" x="200.7063452" xlink:href="#m758fc3bcc2" y="108.539374257"/>
     <use style="fill:#00bfbf;stroke:#000000;" x="223.831389438" xlink:href="#m758fc3bcc2" y="116.513837583"/>
     <use style="fill:#00bfbf;stroke:#000000;" x="248.326108374" xlink:href="#m758fc3bcc2" y="110.364668455"/>
     <use style="fill:#00bfbf;stroke:#000000;" x="221.578943706" xlink:href="#m758fc3bcc2" y="113.47291278"/>
     <use style="fill:#00bfbf;stroke:#000000;" x="225.712810267" xlink:href="#m758fc3bcc2" y="130.863870519"/>
     <use style="fill:#00bfbf;stroke:#000000;" x="214.792027234" xlink:href="#m758fc3bcc2" y="104.77516531"/>
     <use style="fill:#00bfbf;stroke:#000000;" x="214.217207147" xlink:href="#m758fc3bcc2" y="101.832776888"/>
     <use style="fill:#00bfbf;stroke:#000000;" x="218.232934731" xlink:href="#m758fc3bcc2" y="151.244644113"/>
     <use style="fill:#00bfbf;stroke:#000000;" x="218.797847913" xlink:href="#m758fc3bcc2" y="101.333271596"/>
    </g>
   </g>
   <g id="PathCollection_2">
    <defs>
     <path d="
M0 2.23607
C0.593012 2.23607 1.16182 2.00046 1.58114 1.58114
C2.00046 1.16182 2.23607 0.593012 2.23607 0
C2.23607 -0.593012 2.00046 -1.16182 1.58114 -1.58114
C1.16182 -2.00046 0.593012 -2.23607 0 -2.23607
C-0.593012 -2.23607 -1.16182 -2.00046 -1.58114 -1.58114
C-2.00046 -1.16182 -2.23607 -0.593012 -2.23607 0
C-2.23607 0.593012 -2.00046 1.16182 -1.58114 1.58114
C-1.16182 2.00046 -0.593012 2.23607 0 2.23607
z
" id="m18a6e99b48" style="stroke:#000000;"/>
    </defs>
    <g clip-path="url(#p2265e122b5)">
     <use style="fill:#ffffff;stroke:#000000;" x="278.897385586" xlink:href="#m18a6e99b48" y="205.861659601"/>
     <use style="fill:#ffffff;stroke:#000000;" x="208.006528962" xlink:href="#m18a6e99b48" y="101.986815022"/>
     <use style="fill:#ffffff;stroke:#000000;" x="219.075178228" xlink:href="#m18a6e99b48" y="207.501882867"/>
     <use style="fill:#ffffff;stroke:#000000;" x="218.670136698" xlink:href="#m18a6e99b48" y="111.750726386"/>
     <use style="fill:#ffffff;stroke:#000000;" x="231.193500701" xlink:href="#m18a6e99b48" y="106.265976377"/>
     <use style="fill:#ffffff;stroke:#000000;" x="201.275034497" xlink:href="#m18a6e99b48" y="174.183410392"/>
     <use style="fill:#ffffff;stroke:#000000;" x="225.89375914" xlink:href="#m18a6e99b48" y="108.782155014"/>
     <use style="fill:#ffffff;stroke:#000000;" x="209.004509307" xlink:href="#m18a6e99b48" y="108.868904287"/>
     <use style="fill:#ffffff;stroke:#000000;" x="189.27405852" xlink:href="#m18a6e99b48" y="106.845414799"/>
     <use style="fill:#ffffff;stroke:#000000;" x="227.284784641" xlink:href="#m18a6e99b48" y="137.734870597"/>
     <use style="fill:#ffffff;stroke:#000000;" x="218.370455868" xlink:href="#m18a6e99b48" y="119.598342614"/>
     <use style="fill:#ffffff;stroke:#000000;" x="237.544100439" xlink:href="#m18a6e99b48" y="105.336214069"/>
     <use style="fill:#ffffff;stroke:#000000;" x="227.485270854" xlink:href="#m18a6e99b48" y="107.156956761"/>
     <use style="fill:#ffffff;stroke:#000000;" x="229.496097308" xlink:href="#m18a6e99b48" y="113.129330041"/>
     <use style="fill:#ffffff;stroke:#000000;" x="207.426231455" xlink:href="#m18a6e99b48" y="136.750820501"/>
     <use style="fill:#ffffff;stroke:#000000;" x="249.298136042" xlink:href="#m18a6e99b48" y="115.402571323"/>
     <use style="fill:#ffffff;stroke:#000000;" x="221.59644852" xlink:href="#m18a6e99b48" y="103.443403667"/>
     <use style="fill:#ffffff;stroke:#000000;" x="233.176058139" xlink:href="#m18a6e99b48" y="134.279817868"/>
     <use style="fill:#ffffff;stroke:#000000;" x="220.999635372" xlink:href="#m18a6e99b48" y="101.304448619"/>
     <use style="fill:#ffffff;stroke:#000000;" x="227.735807751" xlink:href="#m18a6e99b48" y="106.117106919"/>
     <use style="fill:#ffffff;stroke:#000000;" x="223.759362778" xlink:href="#m18a6e99b48" y="103.365197329"/>
     <use style="fill:#ffffff;stroke:#000000;" x="222.576515676" xlink:href="#m18a6e99b48" y="103.655135578"/>
     <use style="fill:#ffffff;stroke:#000000;" x="208.716618562" xlink:href="#m18a6e99b48" y="102.925107023"/>
     <use style="fill:#ffffff;stroke:#000000;" x="181.001607274" xlink:href="#m18a6e99b48" y="121.287293722"/>
     <use style="fill:#ffffff;stroke:#000000;" x="258.364845348" xlink:href="#m18a6e99b48" y="122.637458006"/>
     <use style="fill:#ffffff;stroke:#000000;" x="223.955907267" xlink:href="#m18a6e99b48" y="111.418890322"/>
     <use style="fill:#ffffff;stroke:#000000;" x="222.716250034" xlink:href="#m18a6e99b48" y="108.268829349"/>
     <use style="fill:#ffffff;stroke:#000000;" x="225.625169628" xlink:href="#m18a6e99b48" y="106.0157257"/>
     <use style="fill:#ffffff;stroke:#000000;" x="226.020805951" xlink:href="#m18a6e99b48" y="114.241951325"/>
     <use style="fill:#ffffff;stroke:#000000;" x="223.944269648" xlink:href="#m18a6e99b48" y="103.88392567"/>
     <use style="fill:#ffffff;stroke:#000000;" x="225.814098052" xlink:href="#m18a6e99b48" y="114.900533102"/>
     <use style="fill:#ffffff;stroke:#000000;" x="222.163994036" xlink:href="#m18a6e99b48" y="106.567693312"/>
     <use style="fill:#ffffff;stroke:#000000;" x="222.399137162" xlink:href="#m18a6e99b48" y="101.510221338"/>
     <use style="fill:#ffffff;stroke:#000000;" x="150.026191301" xlink:href="#m18a6e99b48" y="149.442846633"/>
     <use style="fill:#ffffff;stroke:#000000;" x="216.412394627" xlink:href="#m18a6e99b48" y="120.830820129"/>
     <use style="fill:#ffffff;stroke:#000000;" x="218.002451037" xlink:href="#m18a6e99b48" y="107.888239023"/>
     <use style="fill:#ffffff;stroke:#000000;" x="217.614465892" xlink:href="#m18a6e99b48" y="117.459761757"/>
     <use style="fill:#ffffff;stroke:#000000;" x="225.644432808" xlink:href="#m18a6e99b48" y="137.628793802"/>
     <use style="fill:#ffffff;stroke:#000000;" x="235.234656908" xlink:href="#m18a6e99b48" y="238.400218487"/>
     <use style="fill:#ffffff;stroke:#000000;" x="223.340940361" xlink:href="#m18a6e99b48" y="104.803601194"/>
     <use style="fill:#ffffff;stroke:#000000;" x="195.18712259" xlink:href="#m18a6e99b48" y="116.082454295"/>
     <use style="fill:#ffffff;stroke:#000000;" x="268.151828614" xlink:href="#m18a6e99b48" y="112.936165875"/>
     <use style="fill:#ffffff;stroke:#000000;" x="209.229277592" xlink:href="#m18a6e99b48" y="115.426569368"/>
     <use style="fill:#ffffff;stroke:#000000;" x="210.527358568" xlink:href="#m18a6e99b48" y="133.414089128"/>
     <use style="fill:#ffffff;stroke:#000000;" x="217.407743567" xlink:href="#m18a6e99b48" y="101.676733624"/>
     <use style="fill:#ffffff;stroke:#000000;" x="232.057297298" xlink:href="#m18a6e99b48" y="122.462102084"/>
     <use style="fill:#ffffff;stroke:#000000;" x="224.278431356" xlink:href="#m18a6e99b48" y="106.077141306"/>
     <use style="fill:#ffffff;stroke:#000000;" x="215.766948867" xlink:href="#m18a6e99b48" y="108.514981362"/>
     <use style="fill:#ffffff;stroke:#000000;" x="223.597675523" xlink:href="#m18a6e99b48" y="111.08406627"/>
     <use style="fill:#ffffff;stroke:#000000;" x="221.740657449" xlink:href="#m18a6e99b48" y="118.409225922"/>
     <use style="fill:#ffffff;stroke:#000000;" x="242.274497506" xlink:href="#m18a6e99b48" y="104.458109026"/>
     <use style="fill:#ffffff;stroke:#000000;" x="251.01932439" xlink:href="#m18a6e99b48" y="127.987958451"/>
    </g>
   </g>
   <g id="line2d_1">
    <path clip-path="url(#p2265e122b5)" d="
M221.4 100.8
L227.429 100.958
L233.442 101.431
L239.421 102.218
L245.351 103.317
L251.216 104.725
L256.999 106.438
L262.684 108.452
L268.256 110.76
L273.7 113.356
L279 116.234
L284.142 119.385
L289.113 122.801
L293.898 126.473
L298.484 130.39
L302.859 134.541
L307.01 138.916
L310.927 143.502
L314.599 148.287
L318.015 153.258
L321.166 158.4
L324.044 163.7
L326.64 169.144
L328.948 174.716
L330.962 180.401
L332.675 186.184
L334.083 192.049
L335.182 197.979
L335.969 203.958
L336.442 209.971
L336.6 216
L336.442 222.029
L335.969 228.042
L335.182 234.021
L334.083 239.951
L332.675 245.816
L330.962 251.599
L328.948 257.284
L326.64 262.856
L324.044 268.3
L321.166 273.6
L318.015 278.742
L314.599 283.713
L310.927 288.498
L307.01 293.084
L302.859 297.459
L298.484 301.61
L293.898 305.527
L289.113 309.199
L284.142 312.615
L279 315.766
L273.7 318.644
L268.256 321.24
L262.684 323.548
L256.999 325.562
L251.216 327.275
L245.351 328.683
L239.421 329.782
L233.442 330.569
L227.429 331.042
L221.4 331.2
L215.371 331.042
L209.358 330.569
L203.379 329.782
L197.449 328.683
L191.584 327.275
L185.801 325.562
L180.116 323.548
L174.544 321.24
L169.1 318.644
L163.8 315.766
L158.658 312.615
L153.687 309.199
L148.902 305.527
L144.316 301.61
L139.941 297.459
L135.79 293.084
L131.873 288.498
L128.201 283.713
L124.785 278.742
L121.634 273.6
L118.756 268.3
L116.16 262.856
L113.852 257.284
L111.838 251.599
L110.125 245.816
L108.717 239.951
L107.618 234.021
L106.831 228.042
L106.358 222.029
L106.2 216
L106.358 209.971
L106.831 203.958
L107.618 197.979
L108.717 192.049
L110.125 186.184
L111.838 180.401
L113.852 174.716
L116.16 169.144
L118.756 163.7
L121.634 158.4
L124.785 153.258
L128.201 148.287
L131.873 143.502
L135.79 138.916
L139.941 134.541
L144.316 130.39
L148.902 126.473
L153.687 122.801
L158.658 119.385
L163.8 116.234
L169.1 113.356
L174.544 110.76
L180.116 108.452
L185.801 106.438
L191.584 104.725
L197.449 103.317
L203.379 102.218
L209.358 101.431
L215.371 100.958
L221.4 100.8
L221.4 100.8" style="fill:none;stroke:#000000;stroke-linecap:square;"/>
   </g>
   <g id="line2d_2">
    <defs>
     <path d="
M-3 0
L3 0
M0 3
L0 -3" id="m9d0eee4805" style="stroke:#000000;stroke-width:0.5;"/>
    </defs>
    <g clip-path="url(#p2265e122b5)">
     <use style="stroke:#000000;stroke-width:0.5;" x="221.4" xlink:href="#m9d0eee4805" y="111.278712344"/>
     <use style="stroke:#000000;stroke-width:0.5;" x="221.4" xlink:href="#m9d0eee4805" y="122.55441692"/>
     <use style="stroke:#000000;stroke-width:0.5;" x="221.4" xlink:href="#m9d0eee4805" y="134.541298807"/>
     <use style="stroke:#000000;stroke-width:0.5;" x="221.4" xlink:href="#m9d0eee4805" y="147.148130597"/>
     <use style="stroke:#000000;stroke-width:0.5;" x="221.4" xlink:href="#m9d0eee4805" y="160.278966686"/>
     <use style="stroke:#000000;stroke-width:0.5;" x="221.4" xlink:href="#m9d0eee4805" y="173.833873484"/>
     <use style="stroke:#000000;stroke-width:0.5;" x="221.4" xlink:href="#m9d0eee4805" y="187.709689966"/>
     <use style="stroke:#000000;stroke-width:0.5;" x="221.4" xlink:href="#m9d0eee4805" y="201.800812789"/>
     <use style="stroke:#000000;stroke-width:0.5;" x="221.4" xlink:href="#m9d0eee4805" y="216.0"/>
    </g>
   </g>
   <g id="line2d_3">
    <g clip-path="url(#p2265e122b5)">
     <use style="stroke:#000000;stroke-width:0.5;" x="326.121287656" xlink:href="#m9d0eee4805" y="216.0"/>
     <use style="stroke:#000000;stroke-width:0.5;" x="314.84558308" xlink:href="#m9d0eee4805" y="216.0"/>
     <use style="stroke:#000000;stroke-width:0.5;" x="302.858701193" xlink:href="#m9d0eee4805" y="216.0"/>
     <use style="stroke:#000000;stroke-width:0.5;" x="290.251869403" xlink:href="#m9d0eee4805" y="216.0"/>
     <use style="stroke:#000000;stroke-width:0.5;" x="277.121033314" xlink:href="#m9d0eee4805" y="216.0"/>
     <use style="stroke:#000000;stroke-width:0.5;" x="263.566126516" xlink:href="#m9d0eee4805" y="216.0"/>
     <use style="stroke:#000000;stroke-width:0.5;" x="249.690310034" xlink:href="#m9d0eee4805" y="216.0"/>
     <use style="stroke:#000000;stroke-width:0.5;" x="235.599187211" xlink:href="#m9d0eee4805" y="216.0"/>
    </g>
   </g>
   <g id="line2d_4">
    <g clip-path="url(#p2265e122b5)">
     <use style="stroke:#000000;stroke-width:0.5;" x="221.4" xlink:href="#m9d0eee4805" y="320.721287656"/>
     <use style="stroke:#000000;stroke-width:0.5;" x="221.4" xlink:href="#m9d0eee4805" y="309.44558308"/>
     <use style="stroke:#000000;stroke-width:0.5;" x="221.4" xlink:href="#m9d0eee4805" y="297.458701193"/>
     <use style="stroke:#000000;stroke-width:0.5;" x="221.4" xlink:href="#m9d0eee4805" y="284.851869403"/>
     <use style="stroke:#000000;stroke-width:0.5;" x="221.4" xlink:href="#m9d0eee4805" y="271.721033314"/>
     <use style="stroke:#000000;stroke-width:0.5;" x="221.4" xlink:href="#m9d0eee4805" y="258.166126516"/>
     <use style="stroke:#000000;stroke-width:0.5;" x="221.4" xlink:href="#m9d0eee4805" y="244.290310034"/>
     <use style="stroke:#000000;stroke-width:0.5;" x="221.4" xlink:href="#m9d0eee4805" y="230.199187211"/>
    </g>
   </g>
   <g id="line2d_5">
    <g clip-path="url(#p2265e122b5)">
     <use style="stroke:#000000;stroke-width:0.5;" x="116.678712344" xlink:href="#m9d0eee4805" y="216.0"/>
     <use style="stroke:#000000;stroke-width:0.5;" x="127.95441692" xlink:href="#m9d0eee4805" y="216.0"/>
     <use style="stroke:#000000;stroke-width:0.5;" x="139.941298807" xlink:href="#m9d0eee4805" y="216.0"/>
     <use style="stroke:#000000;stroke-width:0.5;" x="152.548130597" xlink:href="#m9d0eee4805" y="216.0"/>
     <use style="stroke:#000000;stroke-width:0.5;" x="165.678966686" xlink:href="#m9d0eee4805" y="216.0"/>
     <use style="stroke:#000000;stroke-width:0.5;" x="179.233873484" xlink:href="#m9d0eee4805" y="216.0"/>
     <use style="stroke:#000000;stroke-width:0.5;" x="193.109689966" xlink:href="#m9d0eee4805" y="216.0"/>
     <use style="stroke:#000000;stroke-width:0.5;" x="207.200812789" xlink:href="#m9d0eee4805" y="216.0"/>
    </g>
   </g>
   <g id="line2d_6">
    <path clip-path="url(#p2265e122b5)" d="
M221.4 100.8
L221.4 101.81
L221.4 102.828
L221.4 103.855" style="fill:none;stroke:#000000;stroke-linecap:square;"/>
   </g>
   <g id="line2d_7">
    <path clip-path="url(#p2265e122b5)" d="
M241.404 102.55
L241.229 103.544
L241.052 104.547
L240.874 105.559" style="fill:none;stroke:#000000;stroke-linecap:square;"/>
   </g>
   <g id="line2d_8">
    <path clip-path="url(#p2265e122b5)" d="
M260.801 107.747
L260.455 108.696
L260.107 109.653
L259.756 110.618" style="fill:none;stroke:#000000;stroke-linecap:square;"/>
   </g>
   <g id="line2d_9">
    <path clip-path="url(#p2265e122b5)" d="
M279 116.234
L278.495 117.108
L277.986 117.99
L277.472 118.88" style="fill:none;stroke:#000000;stroke-linecap:square;"/>
   </g>
   <g id="line2d_10">
    <path clip-path="url(#p2265e122b5)" d="
M295.449 127.752
L294.8 128.525
L294.146 129.305
L293.485 130.092" style="fill:none;stroke:#000000;stroke-linecap:square;"/>
   </g>
   <g id="line2d_11">
    <path clip-path="url(#p2265e122b5)" d="
M309.648 141.951
L308.875 142.6
L308.095 143.254
L307.308 143.915" style="fill:none;stroke:#000000;stroke-linecap:square;"/>
   </g>
   <g id="line2d_12">
    <path clip-path="url(#p2265e122b5)" d="
M321.166 158.4
L320.292 158.905
L319.41 159.414
L318.52 159.928" style="fill:none;stroke:#000000;stroke-linecap:square;"/>
   </g>
   <g id="line2d_13">
    <path clip-path="url(#p2265e122b5)" d="
M329.653 176.599
L328.704 176.945
L327.747 177.293
L326.782 177.644" style="fill:none;stroke:#000000;stroke-linecap:square;"/>
   </g>
   <g id="line2d_14">
    <path clip-path="url(#p2265e122b5)" d="
M334.85 195.996
L333.856 196.171
L332.853 196.348
L331.841 196.526" style="fill:none;stroke:#000000;stroke-linecap:square;"/>
   </g>
   <g id="line2d_15">
    <path clip-path="url(#p2265e122b5)" d="
M336.6 216
L335.59 216
L334.572 216
L333.545 216" style="fill:none;stroke:#000000;stroke-linecap:square;"/>
   </g>
   <g id="line2d_16">
    <path clip-path="url(#p2265e122b5)" d="
M334.85 236.004
L333.856 235.829
L332.853 235.652
L331.841 235.474" style="fill:none;stroke:#000000;stroke-linecap:square;"/>
   </g>
   <g id="line2d_17">
    <path clip-path="url(#p2265e122b5)" d="
M329.653 255.401
L328.704 255.055
L327.747 254.707
L326.782 254.356" style="fill:none;stroke:#000000;stroke-linecap:square;"/>
   </g>
   <g id="line2d_18">
    <path clip-path="url(#p2265e122b5)" d="
M321.166 273.6
L320.292 273.095
L319.41 272.586
L318.52 272.072" style="fill:none;stroke:#000000;stroke-linecap:square;"/>
   </g>
   <g id="line2d_19">
    <path clip-path="url(#p2265e122b5)" d="
M309.648 290.049
L308.875 289.4
L308.095 288.746
L307.308 288.085" style="fill:none;stroke:#000000;stroke-linecap:square;"/>
   </g>
   <g id="line2d_20">
    <path clip-path="url(#p2265e122b5)" d="
M295.449 304.248
L294.8 303.475
L294.146 302.695
L293.485 301.908" style="fill:none;stroke:#000000;stroke-linecap:square;"/>
   </g>
   <g id="line2d_21">
    <path clip-path="url(#p2265e122b5)" d="
M279 315.766
L278.495 314.892
L277.986 314.01
L277.472 313.12" style="fill:none;stroke:#000000;stroke-linecap:square;"/>
   </g>
   <g id="line2d_22">
    <path clip-path="url(#p2265e122b5)" d="
M260.801 324.253
L260.455 323.304
L260.107 322.347
L259.756 321.382" style="fill:none;stroke:#000000;stroke-linecap:square;"/>
   </g>
   <g id="line2d_23">
    <path clip-path="url(#p2265e122b5)" d="
M241.404 329.45
L241.229 328.456
L241.052 327.453
L240.874 326.441" style="fill:none;stroke:#000000;stroke-linecap:square;"/>
   </g>
   <g id="line2d_24">
    <path clip-path="url(#p2265e122b5)" d="
M221.4 331.2
L221.4 330.19
L221.4 329.172
L221.4 328.145" style="fill:none;stroke:#000000;stroke-linecap:square;"/>
   </g>
   <g id="line2d_25">
    <path clip-path="url(#p2265e122b5)" d="
M201.396 329.45
L201.571 328.456
L201.748 327.453
L201.926 326.441" style="fill:none;stroke:#000000;stroke-linecap:square;"/>
   </g>
   <g id="line2d_26">
    <path clip-path="url(#p2265e122b5)" d="
M181.999 324.253
L182.345 323.304
L182.693 322.347
L183.044 321.382" style="fill:none;stroke:#000000;stroke-linecap:square;"/>
   </g>
   <g id="line2d_27">
    <path clip-path="url(#p2265e122b5)" d="
M163.8 315.766
L164.305 314.892
L164.814 314.01
L165.328 313.12" style="fill:none;stroke:#000000;stroke-linecap:square;"/>
   </g>
   <g id="line2d_28">
    <path clip-path="url(#p2265e122b5)" d="
M147.351 304.248
L148 303.475
L148.654 302.695
L149.315 301.908" style="fill:none;stroke:#000000;stroke-linecap:square;"/>
   </g>
   <g id="line2d_29">
    <path clip-path="url(#p2265e122b5)" d="
M133.152 290.049
L133.925 289.4
L134.705 288.746
L135.492 288.085" style="fill:none;stroke:#000000;stroke-linecap:square;"/>
   </g>
   <g id="line2d_30">
    <path clip-path="url(#p2265e122b5)" d="
M121.634 273.6
L122.508 273.095
L123.39 272.586
L124.28 272.072" style="fill:none;stroke:#000000;stroke-linecap:square;"/>
   </g>
   <g id="line2d_31">
    <path clip-path="url(#p2265e122b5)" d="
M113.147 255.401
L114.096 255.055
L115.053 254.707
L116.018 254.356" style="fill:none;stroke:#000000;stroke-linecap:square;"/>
   </g>
   <g id="line2d_32">
    <path clip-path="url(#p2265e122b5)" d="
M107.95 236.004
L108.944 235.829
L109.947 235.652
L110.959 235.474" style="fill:none;stroke:#000000;stroke-linecap:square;"/>
   </g>
   <g id="line2d_33">
    <path clip-path="url(#p2265e122b5)" d="
M106.2 216
L107.21 216
L108.228 216
L109.255 216" style="fill:none;stroke:#000000;stroke-linecap:square;"/>
   </g>
   <g id="line2d_34">
    <path clip-path="url(#p2265e122b5)" d="
M107.95 195.996
L108.944 196.171
L109.947 196.348
L110.959 196.526" style="fill:none;stroke:#000000;stroke-linecap:square;"/>
   </g>
   <g id="line2d_35">
    <path clip-path="url(#p2265e122b5)" d="
M113.147 176.599
L114.096 176.945
L115.053 177.293
L116.018 177.644" style="fill:none;stroke:#000000;stroke-linecap:square;"/>
   </g>
   <g id="line2d_36">
    <path clip-path="url(#p2265e122b5)" d="
M121.634 158.4
L122.508 158.905
L123.39 159.414
L124.28 159.928" style="fill:none;stroke:#000000;stroke-linecap:square;"/>
   </g>
   <g id="line2d_37">
    <path clip-path="url(#p2265e122b5)" d="
M133.152 141.951
L133.925 142.6
L134.705 143.254
L135.492 143.915" style="fill:none;stroke:#000000;stroke-linecap:square;"/>
   </g>
   <g id="line2d_38">
    <path clip-path="url(#p2265e122b5)" d="
M147.351 127.752
L148 128.525
L148.654 129.305
L149.315 130.092" style="fill:none;stroke:#000000;stroke-linecap:square;"/>
   </g>
   <g id="line2d_39">
    <path clip-path="url(#p2265e122b5)" d="
M163.8 116.234
L164.305 117.108
L164.814 117.99
L165.328 118.88" style="fill:none;stroke:#000000;stroke-linecap:square;"/>
   </g>
   <g id="line2d_40">
    <path clip-path="url(#p2265e122b5)" d="
M181.999 107.747
L182.345 108.696
L182.693 109.653
L183.044 110.618" style="fill:none;stroke:#000000;stroke-linecap:square;"/>
   </g>
   <g id="line2d_41">
    <path clip-path="url(#p2265e122b5)" d="
M201.396 102.55
L201.571 103.544
L201.748 104.547
L201.926 105.559" style="fill:none;stroke:#000000;stroke-linecap:square;"/>
   </g>
   <g id="line2d_42">
    <path clip-path="url(#p2265e122b5)" d="
M94.68 342.72
L348.12 342.72
L348.12 89.28
L94.68 89.28
L94.68 342.72" style="fill:none;stroke:#000000;stroke-linecap:square;stroke-width:0.5;"/>
   </g>
   <g id="text_1">
    <!-- Data -->
    <defs>
     <path d="
M18.3125 70.2188
L18.3125 54.6875
L36.8125 54.6875
L36.8125 47.7031
L18.3125 47.7031
L18.3125 18.0156
Q18.3125 11.3281 20.1406 9.42188
Q21.9688 7.51562 27.5938 7.51562
L36.8125 7.51562
L36.8125 0
L27.5938 0
Q17.1875 0 13.2344 3.875
Q9.28125 7.76562 9.28125 18.0156
L9.28125 47.7031
L2.6875 47.7031
L2.6875 54.6875
L9.28125 54.6875
L9.28125 70.2188
z
" id="BitstreamVeraSans-Roman-74"/>
     <path d="
M19.6719 64.7969
L19.6719 8.10938
L31.5938 8.10938
Q46.6875 8.10938 53.6875 14.9375
Q60.6875 21.7812 60.6875 36.5312
Q60.6875 51.1719 53.6875 57.9844
Q46.6875 64.7969 31.5938 64.7969
z

M9.8125 72.9062
L30.0781 72.9062
Q51.2656 72.9062 61.1719 64.0938
Q71.0938 55.2812 71.0938 36.5312
Q71.0938 17.6719 61.125 8.82812
Q51.1719 0 30.0781 0
L9.8125 0
z
" id="BitstreamVeraSans-Roman-44"/>
     <path d="
M34.2812 27.4844
Q23.3906 27.4844 19.1875 25
Q14.9844 22.5156 14.9844 16.5
Q14.9844 11.7188 18.1406 8.90625
Q21.2969 6.10938 26.7031 6.10938
Q34.1875 6.10938 38.7031 11.4062
Q43.2188 16.7031 43.2188 25.4844
L43.2188 27.4844
z

M52.2031 31.2031
L52.2031 0
L43.2188 0
L43.2188 8.29688
Q40.1406 3.32812 35.5469 0.953125
Q30.9531 -1.42188 24.3125 -1.42188
Q15.9219 -1.42188 10.9531 3.29688
Q6 8.01562 6 15.9219
Q6 25.1406 12.1719 29.8281
Q18.3594 34.5156 30.6094 34.5156
L43.2188 34.5156
L43.2188 35.4062
Q43.2188 41.6094 39.1406 45
Q35.0625 48.3906 27.6875 48.3906
Q23 48.3906 18.5469 47.2656
Q14.1094 46.1406 10.0156 43.8906
L10.0156 52.2031
Q14.9375 54.1094 19.5781 55.0469
Q24.2188 56 28.6094 56
Q40.4844 56 46.3438 49.8438
Q52.2031 43.7031 52.2031 31.2031" id="BitstreamVeraSans-Roman-61"/>
    </defs>
    <g transform="translate(94.68 83.52)scale(0.12 -0.12)">
     <use xlink:href="#BitstreamVeraSans-Roman-44"/>
     <use x="77.001953125" xlink:href="#BitstreamVeraSans-Roman-61"/>
     <use x="138.28125" xlink:href="#BitstreamVeraSans-Roman-74"/>
     <use x="177.490234375" xlink:href="#BitstreamVeraSans-Roman-61"/>
    </g>
   </g>
  </g>
  <g id="text_2">
   <!-- pmagpy-3.2.1 -->
   <defs>
    <path d="
M19.1875 8.29688
L53.6094 8.29688
L53.6094 0
L7.32812 0
L7.32812 8.29688
Q12.9375 14.1094 22.625 23.8906
Q32.3281 33.6875 34.8125 36.5312
Q39.5469 41.8438 41.4219 45.5312
Q43.3125 49.2188 43.3125 52.7812
Q43.3125 58.5938 39.2344 62.25
Q35.1562 65.9219 28.6094 65.9219
Q23.9688 65.9219 18.8125 64.3125
Q13.6719 62.7031 7.8125 59.4219
L7.8125 69.3906
Q13.7656 71.7812 18.9375 73
Q24.125 74.2188 28.4219 74.2188
Q39.75 74.2188 46.4844 68.5469
Q53.2188 62.8906 53.2188 53.4219
Q53.2188 48.9219 51.5312 44.8906
Q49.8594 40.875 45.4062 35.4062
Q44.1875 33.9844 37.6406 27.2188
Q31.1094 20.4531 19.1875 8.29688" id="BitstreamVeraSans-Roman-32"/>
    <path d="
M40.5781 39.3125
Q47.6562 37.7969 51.625 33
Q55.6094 28.2188 55.6094 21.1875
Q55.6094 10.4062 48.1875 4.48438
Q40.7656 -1.42188 27.0938 -1.42188
Q22.5156 -1.42188 17.6562 -0.515625
Q12.7969 0.390625 7.625 2.20312
L7.625 11.7188
Q11.7188 9.32812 16.5938 8.10938
Q21.4844 6.89062 26.8125 6.89062
Q36.0781 6.89062 40.9375 10.5469
Q45.7969 14.2031 45.7969 21.1875
Q45.7969 27.6406 41.2812 31.2656
Q36.7656 34.9062 28.7188 34.9062
L20.2188 34.9062
L20.2188 43.0156
L29.1094 43.0156
Q36.375 43.0156 40.2344 45.9219
Q44.0938 48.8281 44.0938 54.2969
Q44.0938 59.9062 40.1094 62.9062
Q36.1406 65.9219 28.7188 65.9219
Q24.6562 65.9219 20.0156 65.0312
Q15.375 64.1562 9.8125 62.3125
L9.8125 71.0938
Q15.4375 72.6562 20.3438 73.4375
Q25.25 74.2188 29.5938 74.2188
Q40.8281 74.2188 47.3594 69.1094
Q53.9062 64.0156 53.9062 55.3281
Q53.9062 49.2656 50.4375 45.0938
Q46.9688 40.9219 40.5781 39.3125" id="BitstreamVeraSans-Roman-33"/>
    <path d="
M12.4062 8.29688
L28.5156 8.29688
L28.5156 63.9219
L10.9844 60.4062
L10.9844 69.3906
L28.4219 72.9062
L38.2812 72.9062
L38.2812 8.29688
L54.3906 8.29688
L54.3906 0
L12.4062 0
z
" id="BitstreamVeraSans-Roman-31"/>
    <path d="
M52 44.1875
Q55.375 50.25 60.0625 53.125
Q64.75 56 71.0938 56
Q79.6406 56 84.2812 50.0156
Q88.9219 44.0469 88.9219 33.0156
L88.9219 0
L79.8906 0
L79.8906 32.7188
Q79.8906 40.5781 77.0938 44.375
Q74.3125 48.1875 68.6094 48.1875
Q61.625 48.1875 57.5625 43.5469
Q53.5156 38.9219 53.5156 30.9062
L53.5156 0
L44.4844 0
L44.4844 32.7188
Q44.4844 40.625 41.7031 44.4062
Q38.9219 48.1875 33.1094 48.1875
Q26.2188 48.1875 22.1562 43.5312
Q18.1094 38.875 18.1094 30.9062
L18.1094 0
L9.07812 0
L9.07812 54.6875
L18.1094 54.6875
L18.1094 46.1875
Q21.1875 51.2188 25.4844 53.6094
Q29.7812 56 35.6875 56
Q41.6562 56 45.8281 52.9688
Q50 49.9531 52 44.1875" id="BitstreamVeraSans-Roman-6d"/>
    <path d="
M10.6875 12.4062
L21 12.4062
L21 0
L10.6875 0
z
" id="BitstreamVeraSans-Roman-2e"/>
    <path d="
M4.89062 31.3906
L31.2031 31.3906
L31.2031 23.3906
L4.89062 23.3906
z
" id="BitstreamVeraSans-Roman-2d"/>
    <path d="
M32.1719 -5.07812
Q28.375 -14.8438 24.75 -17.8125
Q21.1406 -20.7969 15.0938 -20.7969
L7.90625 -20.7969
L7.90625 -13.2812
L13.1875 -13.2812
Q16.8906 -13.2812 18.9375 -11.5156
Q21 -9.76562 23.4844 -3.21875
L25.0938 0.875
L2.98438 54.6875
L12.5 54.6875
L29.5938 11.9219
L46.6875 54.6875
L56.2031 54.6875
z
" id="BitstreamVeraSans-Roman-79"/>
    <path d="
M45.4062 27.9844
Q45.4062 37.75 41.375 43.1094
Q37.3594 48.4844 30.0781 48.4844
Q22.8594 48.4844 18.8281 43.1094
Q14.7969 37.75 14.7969 27.9844
Q14.7969 18.2656 18.8281 12.8906
Q22.8594 7.51562 30.0781 7.51562
Q37.3594 7.51562 41.375 12.8906
Q45.4062 18.2656 45.4062 27.9844
M54.3906 6.78125
Q54.3906 -7.17188 48.1875 -13.9844
Q42 -20.7969 29.2031 -20.7969
Q24.4688 -20.7969 20.2656 -20.0938
Q16.0625 -19.3906 12.1094 -17.9219
L12.1094 -9.1875
Q16.0625 -11.3281 19.9219 -12.3438
Q23.7812 -13.375 27.7812 -13.375
Q36.625 -13.375 41.0156 -8.76562
Q45.4062 -4.15625 45.4062 5.17188
L45.4062 9.625
Q42.625 4.78125 38.2812 2.39062
Q33.9375 0 27.875 0
Q17.8281 0 11.6719 7.65625
Q5.51562 15.3281 5.51562 27.9844
Q5.51562 40.6719 11.6719 48.3281
Q17.8281 56 27.875 56
Q33.9375 56 38.2812 53.6094
Q42.625 51.2188 45.4062 46.3906
L45.4062 54.6875
L54.3906 54.6875
z
" id="BitstreamVeraSans-Roman-67"/>
    <path d="
M18.1094 8.20312
L18.1094 -20.7969
L9.07812 -20.7969
L9.07812 54.6875
L18.1094 54.6875
L18.1094 46.3906
Q20.9531 51.2656 25.2656 53.625
Q29.5938 56 35.5938 56
Q45.5625 56 51.7812 48.0938
Q58.0156 40.1875 58.0156 27.2969
Q58.0156 14.4062 51.7812 6.48438
Q45.5625 -1.42188 35.5938 -1.42188
Q29.5938 -1.42188 25.2656 0.953125
Q20.9531 3.32812 18.1094 8.20312
M48.6875 27.2969
Q48.6875 37.2031 44.6094 42.8438
Q40.5312 48.4844 33.4062 48.4844
Q26.2656 48.4844 22.1875 42.8438
Q18.1094 37.2031 18.1094 27.2969
Q18.1094 17.3906 22.1875 11.75
Q26.2656 6.10938 33.4062 6.10938
Q40.5312 6.10938 44.6094 11.75
Q48.6875 17.3906 48.6875 27.2969" id="BitstreamVeraSans-Roman-70"/>
   </defs>
   <g transform="translate(8.64 427.68)scale(0.12 -0.12)">
    <use xlink:href="#BitstreamVeraSans-Roman-70"/>
    <use x="63.4765625" xlink:href="#BitstreamVeraSans-Roman-6d"/>
    <use x="160.888671875" xlink:href="#BitstreamVeraSans-Roman-61"/>
    <use x="222.16796875" xlink:href="#BitstreamVeraSans-Roman-67"/>
    <use x="285.64453125" xlink:href="#BitstreamVeraSans-Roman-70"/>
    <use x="349.12109375" xlink:href="#BitstreamVeraSans-Roman-79"/>
    <use x="406.55078125" xlink:href="#BitstreamVeraSans-Roman-2d"/>
    <use x="442.634765625" xlink:href="#BitstreamVeraSans-Roman-33"/>
    <use x="506.2578125" xlink:href="#BitstreamVeraSans-Roman-2e"/>
    <use x="538.044921875" xlink:href="#BitstreamVeraSans-Roman-32"/>
    <use x="601.66796875" xlink:href="#BitstreamVeraSans-Roman-2e"/>
    <use x="633.455078125" xlink:href="#BitstreamVeraSans-Roman-31"/>
   </g>
  </g>
 </g>
 <defs>
  <clipPath id="p2265e122b5">
   <rect height="345.6" width="334.8" x="54.0" y="43.2"/>
  </clipPath>
 </defs>
</svg>
